<svg width="197" height="80" viewBox="0 0 197 80" fill="none" xmlns="http://www.w3.org/2000/svg">
<mask id="mask0_6342_6193" style="mask-type:luminance" maskUnits="userSpaceOnUse" x="40" y="19" width="40" height="42">
<path d="M79.949 19.6329H40V60.3671H79.949V19.6329Z" fill="white"/>
</mask>
<g mask="url(#mask0_6342_6193)">
<mask id="mask1_6342_6193" style="mask-type:alpha" maskUnits="userSpaceOnUse" x="33" y="24" width="42" height="43">
<path fill-rule="evenodd" clip-rule="evenodd" d="M68.3127 47.9645C71.9708 45.7431 74.4201 41.6812 74.4201 37.0383C74.4201 30.0122 68.8109 24.3164 61.8915 24.3164C57.0077 24.3164 52.7766 27.1539 50.7099 31.2939L33.0806 49.1953L50.0907 66.4678L68.3127 47.9645Z" fill="#795E5E"/>
</mask>
<g mask="url(#mask1_6342_6193)">
<path fill-rule="evenodd" clip-rule="evenodd" d="M61.6823 23.3956L61.6889 23.3888C59.7139 23.4264 57.8062 23.9667 56.1656 25.0234C54.9353 26.3518 53.7312 27.7069 52.566 29.0992C51.2975 30.6116 50.0738 32.1651 48.9098 33.7703C48.4767 34.3732 48.0501 34.9848 47.6472 35.6207C48.2735 35.2117 48.8758 34.7784 49.4696 34.3387C50.17 33.8135 50.8616 33.2769 51.5431 32.7302C54.8741 30.0616 57.9951 27.1396 60.9931 24.1082C61.2232 23.8718 61.4523 23.6343 61.6823 23.3956ZM60.2054 31.3346C62.4275 29.0527 64.6291 26.7433 66.7684 24.3772C65.8752 24.0072 64.9583 23.7401 64.0403 23.5788C62.0603 25.4516 60.1182 27.365 58.1972 29.2954C55.9869 31.5603 53.7983 33.854 51.6721 36.2042C48.5887 39.6078 45.6303 43.1294 42.9103 46.8574C46.227 44.3613 49.3797 41.6698 52.4276 38.8629C55.0839 36.4204 57.6632 33.8931 60.2054 31.3346ZM70.5823 26.7344C67.4462 30.2605 64.194 33.6775 60.9026 37.0504C58.9281 39.04 56.9385 41.0145 54.92 42.9572C50.5108 47.2023 45.9644 51.3014 41.1392 55.0796C44.945 50.0681 49.0817 45.3525 53.3649 40.7789C55.1868 38.8347 57.0336 36.9158 58.8944 35.0112C62.1336 31.7525 65.4152 28.53 68.7952 25.4189C69.4131 25.8034 70.0111 26.2413 70.5823 26.7344ZM73.5334 30.1868C73.1504 29.5638 72.7135 28.9621 72.2249 28.3879C68.7502 31.5745 65.3817 34.8803 62.0579 38.2248C60.0975 40.2308 58.1508 42.2534 56.2355 44.3053C52.0559 48.7814 48.0225 53.3971 44.3028 58.2932C49.2293 54.4351 53.8667 50.2437 58.3631 45.9022C60.2854 44.0445 62.1828 42.1613 64.0663 40.2639C67.283 36.9669 70.4631 33.6281 73.5334 30.1868ZM74.5736 32.2319C74.9453 33.1263 75.217 34.0459 75.3868 34.967C73.523 37.0023 71.6145 38.9965 69.6916 40.9719C67.4392 43.2386 65.1572 45.482 62.8183 47.6632C59.4883 50.7718 56.0421 53.7512 52.3965 56.4947C54.8427 53.1414 57.4814 49.9548 60.2336 46.8721C62.6486 44.16 65.1507 41.5275 67.6833 38.9326C69.9428 36.664 72.2291 34.4163 74.5736 32.2319ZM74.2435 42.6974C75.1476 41.0757 75.5979 39.2292 75.6041 37.324C75.3337 37.5909 75.0647 37.8589 74.7979 38.1272C71.7785 41.206 68.8706 44.4112 66.2184 47.8358C65.7103 48.4919 65.2122 49.1558 64.723 49.8286C64.2887 50.4326 63.8633 51.0431 63.4603 51.6791C64.0866 51.27 64.689 50.8368 65.2827 50.397C66.7351 49.3096 68.1467 48.1721 69.5228 46.9939C71.1406 45.6111 72.7102 44.1727 74.2435 42.6974Z" fill="url(#paint0_linear_6342_6193)"/>
</g>
</g>
<path d="M84.9326 33.6811H88.8372L92.1493 41.7578H92.3022L95.6144 33.6811H99.519V46.726H96.4488V38.7131H96.3405L93.2067 46.6432H91.2448L88.111 38.6685H88.0028V46.726H84.9326V33.6811Z" fill="white"/>
<path d="M106.059 46.9107C105.036 46.9107 104.152 46.709 103.409 46.3056C102.67 45.8979 102.101 45.3183 101.702 44.5668C101.307 43.8109 101.11 42.9128 101.11 41.8724C101.11 40.8617 101.309 39.9785 101.709 39.2227C102.108 38.4625 102.67 37.8723 103.397 37.4519C104.123 37.0273 104.978 36.8149 105.963 36.8149C106.66 36.8149 107.297 36.9232 107.874 37.1398C108.452 37.3564 108.951 37.677 109.371 38.1016C109.792 38.5263 110.119 39.0507 110.352 39.6749C110.586 40.2948 110.702 41.0061 110.702 41.8087V42.5858H102.199V40.7768H107.804C107.8 40.4456 107.721 40.1505 107.569 39.8915C107.416 39.6324 107.206 39.4307 106.938 39.2864C106.675 39.1377 106.371 39.0634 106.027 39.0634C105.679 39.0634 105.367 39.142 105.091 39.2991C104.815 39.4519 104.596 39.6621 104.435 39.9297C104.273 40.193 104.188 40.4923 104.18 40.8278V42.6686C104.18 43.0678 104.259 43.4181 104.416 43.7196C104.573 44.0168 104.796 44.2483 105.084 44.4139C105.373 44.5795 105.717 44.6623 106.116 44.6623C106.392 44.6623 106.643 44.6241 106.868 44.5477C107.093 44.4712 107.286 44.3587 107.448 44.21C107.609 44.0614 107.73 43.8788 107.811 43.6623L110.671 43.7451C110.552 44.3862 110.291 44.9447 109.887 45.4203C109.488 45.8916 108.964 46.2589 108.314 46.5222C107.664 46.7812 106.913 46.9107 106.059 46.9107Z" fill="white"/>
<path d="M117.816 36.9424V39.2354H111.644V36.9424H117.816ZM112.937 34.5983H116.051V43.6495C116.051 43.8406 116.081 43.9956 116.14 44.1145C116.204 44.2292 116.295 44.312 116.414 44.3629C116.533 44.4096 116.675 44.433 116.841 44.433C116.96 44.433 117.085 44.4224 117.217 44.4011C117.353 44.3757 117.455 44.3544 117.523 44.3375L117.994 46.5859C117.845 46.6283 117.635 46.6814 117.363 46.7452C117.096 46.8089 116.775 46.8492 116.402 46.8662C115.671 46.9002 115.045 46.8152 114.523 46.6114C114.004 46.4033 113.607 46.0805 113.331 45.6432C113.06 45.2059 112.928 44.6559 112.937 43.9935V34.5983Z" fill="white"/>
<path d="M123.873 46.9107C122.85 46.9107 121.967 46.709 121.223 46.3056C120.485 45.8979 119.916 45.3183 119.516 44.5668C119.121 43.8109 118.924 42.9128 118.924 41.8724C118.924 40.8617 119.124 39.9785 119.523 39.2227C119.922 38.4625 120.485 37.8723 121.211 37.4519C121.937 37.0273 122.792 36.8149 123.778 36.8149C124.474 36.8149 125.111 36.9232 125.689 37.1398C126.266 37.3564 126.765 37.677 127.185 38.1016C127.606 38.5263 127.933 39.0507 128.166 39.6749C128.4 40.2948 128.517 41.0061 128.517 41.8087V42.5858H120.013V40.7768H125.618C125.614 40.4456 125.536 40.1505 125.383 39.8915C125.23 39.6324 125.02 39.4307 124.752 39.2864C124.489 39.1377 124.185 39.0634 123.841 39.0634C123.493 39.0634 123.181 39.142 122.905 39.2991C122.629 39.4519 122.41 39.6621 122.249 39.9297C122.088 40.193 122.003 40.4923 121.994 40.8278V42.6686C121.994 43.0678 122.073 43.4181 122.23 43.7196C122.387 44.0168 122.61 44.2483 122.899 44.4139C123.187 44.5795 123.531 44.6623 123.93 44.6623C124.207 44.6623 124.457 44.6241 124.682 44.5477C124.907 44.4712 125.1 44.3587 125.262 44.21C125.423 44.0614 125.544 43.8788 125.625 43.6623L128.485 43.7451C128.366 44.3862 128.105 44.9447 127.701 45.4203C127.302 45.8916 126.778 46.2589 126.128 46.5222C125.478 46.7812 124.727 46.9107 123.873 46.9107Z" fill="white"/>
<path d="M134.674 46.9107C133.647 46.9107 132.764 46.7005 132.025 46.2802C131.29 45.8555 130.723 45.2653 130.324 44.5095C129.929 43.7493 129.731 42.8682 129.731 41.866C129.731 40.8597 129.929 39.9785 130.324 39.2227C130.723 38.4625 131.29 37.8723 132.025 37.4519C132.764 37.0273 133.647 36.8149 134.674 36.8149C135.702 36.8149 136.583 37.0273 137.318 37.4519C138.057 37.8723 138.624 38.4625 139.018 39.2227C139.417 39.9785 139.617 40.8597 139.617 41.866C139.617 42.8682 139.417 43.7493 139.018 44.5095C138.624 45.2653 138.057 45.8555 137.318 46.2802C136.583 46.7005 135.702 46.9107 134.674 46.9107ZM134.694 44.5604C135.067 44.5604 135.383 44.4457 135.643 44.2164C135.902 43.9871 136.099 43.6687 136.235 43.261C136.375 42.8534 136.445 42.382 136.445 41.8469C136.445 41.3033 136.375 40.8278 136.235 40.4201C136.099 40.0124 135.902 39.694 135.643 39.4647C135.383 39.2354 135.067 39.1207 134.694 39.1207C134.307 39.1207 133.98 39.2354 133.713 39.4647C133.449 39.694 133.248 40.0124 133.107 40.4201C132.972 40.8278 132.904 41.3033 132.904 41.8469C132.904 42.382 132.972 42.8534 133.107 43.261C133.248 43.6687 133.449 43.9871 133.713 44.2164C133.98 44.4457 134.307 44.5604 134.694 44.5604Z" fill="white"/>
<path d="M141.213 46.726V36.9424H144.239V38.7258H144.34C144.519 38.0804 144.809 37.6006 145.213 37.2863C145.616 36.9679 146.085 36.8086 146.621 36.8086C146.765 36.8086 146.914 36.8192 147.066 36.8404C147.219 36.8574 147.361 36.885 147.493 36.9232V39.6303C147.344 39.5794 147.149 39.539 146.907 39.5093C146.669 39.4795 146.457 39.4647 146.27 39.4647C145.901 39.4647 145.568 39.5475 145.27 39.7131C144.977 39.8745 144.745 40.1017 144.576 40.3947C144.41 40.6835 144.327 41.0231 144.327 41.4138V46.726H141.213Z" fill="white"/>
<path d="M151.153 46.8916C150.528 46.8916 149.974 46.7876 149.49 46.5795C149.01 46.3673 148.631 46.0487 148.35 45.6241C148.074 45.1952 147.936 44.6581 147.936 44.0126C147.936 43.469 148.032 43.0105 148.223 42.6368C148.414 42.2631 148.677 41.9595 149.013 41.7259C149.348 41.4923 149.735 41.3161 150.171 41.1972C150.609 41.0741 151.076 40.9912 151.573 40.9488C152.129 40.8979 152.578 40.8448 152.917 40.7895C153.256 40.7301 153.503 40.6473 153.656 40.5411C153.813 40.4307 153.891 40.2757 153.891 40.0762V40.0444C153.891 39.7174 153.779 39.4647 153.554 39.2864C153.329 39.108 153.025 39.0188 152.643 39.0188C152.231 39.0188 151.9 39.108 151.649 39.2864C151.399 39.4647 151.24 39.711 151.171 40.0253L148.299 39.9233C148.384 39.3288 148.603 38.798 148.955 38.3309C149.312 37.8596 149.8 37.4901 150.42 37.2226C151.044 36.9508 151.794 36.8149 152.668 36.8149C153.292 36.8149 153.868 36.8893 154.395 37.0379C154.921 37.1823 155.38 37.3946 155.77 37.6748C156.161 37.9509 156.463 38.2906 156.675 38.694C156.891 39.0974 157 39.5581 157 40.0762V46.726H154.07V45.363H153.994C153.82 45.6942 153.596 45.9744 153.325 46.2038C153.057 46.433 152.741 46.605 152.376 46.7196C152.014 46.8343 151.607 46.8916 151.153 46.8916ZM152.115 44.8534C152.45 44.8534 152.752 44.7854 153.019 44.6495C153.291 44.5137 153.508 44.3269 153.668 44.089C153.83 43.847 153.91 43.5667 153.91 43.2482V42.3183C153.822 42.365 153.713 42.4074 153.586 42.4457C153.463 42.4839 153.326 42.52 153.178 42.554C153.03 42.5879 152.876 42.6177 152.719 42.6431C152.562 42.6686 152.412 42.6919 152.267 42.7132C151.974 42.7599 151.724 42.8321 151.516 42.9298C151.312 43.0274 151.154 43.1548 151.044 43.3119C150.938 43.4648 150.885 43.6474 150.885 43.8597C150.885 44.1825 151 44.4287 151.229 44.5986C151.463 44.7685 151.758 44.8534 152.115 44.8534Z" fill="white"/>
<defs>
<linearGradient id="paint0_linear_6342_6193" x1="68.9015" y1="101.22" x2="111.049" y2="51.7627" gradientUnits="userSpaceOnUse">
<stop stop-color="#FF2189"/>
<stop offset="1" stop-color="#FF9D00"/>
</linearGradient>
</defs>
</svg>
