<svg width="163" height="80" viewBox="0 0 163 80" fill="none" xmlns="http://www.w3.org/2000/svg">
<g clip-path="url(#clip0_6722_631)">
<path d="M69.7345 42.8447V40.5608H75.1447C75.972 40.5608 76.6175 40.3257 77.0807 39.8555C77.5436 39.3853 77.7754 38.7655 77.7754 37.9991C77.7754 37.2327 77.5436 36.6007 77.0807 36.1427C76.6175 35.6847 75.972 35.4557 75.1447 35.4557H68.0119V46.5987H65.6769V33.094H75.1447C75.9232 33.094 76.6175 33.2085 77.2299 33.4375C77.8408 33.6665 78.357 33.9886 78.7774 34.4039C79.1978 34.8191 79.5191 35.3229 79.7415 35.9168C79.9639 36.5106 80.0751 37.1793 80.0751 37.9228C80.0751 38.6663 79.9639 39.3181 79.7415 39.9196C79.5191 40.5196 79.1978 41.0371 78.7774 41.4707C78.357 41.9042 77.8423 42.2416 77.2299 42.4828C76.6193 42.7241 75.9232 42.8447 75.1447 42.8447H69.7345Z" fill="white"/>
<path d="M87.7381 46.5956V41.4692L80.5872 33.0941H83.7552L88.9993 39.3151L94.2603 33.0941H97.2623L90.0915 41.4692V46.5956H87.7381Z" fill="white"/>
<path d="M105.376 46.5956V35.4527H99.179V33.0941H113.934V35.4527H107.729V46.5956H105.376Z" fill="white"/>
<path d="M128.656 33.0942H131V46.5958H128.656V33.0942Z" fill="white"/>
<path d="M118.541 46.5958V40.7518H127.262V38.6618H118.541V33.0942H116.197V46.5958H118.541Z" fill="white"/>
<path d="M48.8384 36.6243C48.8384 38.4883 47.3305 39.9997 45.4707 39.9997V43.3751C49.1902 43.3751 52.2061 40.3524 52.2061 36.6243C52.2061 32.8963 49.1902 29.8735 45.4707 29.8735C44.2446 29.8735 43.0931 30.2017 42.1031 30.7773C40.0895 31.9436 38.7354 34.1252 38.7354 36.6243V53.5014L41.7634 56.5362L42.1031 56.8767V36.6243C42.1031 34.7603 43.611 33.2489 45.4707 33.2489C47.3305 33.2489 48.8384 34.7603 48.8384 36.6243Z" fill="white"/>
<path d="M45.4707 23.1233C43.0169 23.1233 40.7169 23.7813 38.7353 24.9308C37.4665 25.6651 36.3303 26.601 35.3677 27.6956C33.2718 30.0756 32 33.2022 32 36.6249V46.7511L35.3677 50.1265V36.6249C35.3677 33.6266 36.6684 30.9321 38.7353 29.0772C39.7071 28.207 40.8479 27.52 42.103 27.0773C43.1555 26.7017 44.2902 26.4987 45.4707 26.4987C51.0499 26.4987 55.5736 31.0328 55.5736 36.6249C55.5736 42.217 51.0499 46.7511 45.4707 46.7511V50.1265C52.9112 50.1265 58.9413 44.081 58.9413 36.6249C58.9413 29.1688 52.9112 23.1233 45.4707 23.1233Z" fill="white"/>
</g>
<defs>
<clipPath id="clip0_6722_631">
<rect width="99" height="33.7534" fill="white" transform="translate(32 23.1233)"/>
</clipPath>
</defs>
</svg>
