<svg width="208" height="80" viewBox="0 0 208 80" fill="none" xmlns="http://www.w3.org/2000/svg">
<g clip-path="url(#clip0_6342_6284)">
<path d="M41.6438 26H51.6083C51.9703 26.0456 52.3287 26.1461 52.6421 26.3377C52.982 26.5315 53.2385 26.8322 53.5128 27.105C55.6374 29.2296 57.7619 31.3542 59.8865 33.4788C60.3354 33.9255 60.5961 34.5553 60.5919 35.1887C60.5926 38.372 60.5919 41.556 60.5926 44.7393C60.6011 45.3905 60.3304 46.036 59.8637 46.4906C57.5945 48.7584 55.3274 51.029 53.0568 53.2961C52.6186 53.7171 52.013 53.9373 51.411 53.9558C48.2754 53.9573 45.1398 53.953 42.0043 53.9573C41.507 53.9644 41.0004 53.8468 40.5765 53.5811C40.2431 53.3759 39.988 53.0738 39.7094 52.8038C37.7352 50.8359 35.7752 48.8546 33.8009 46.8867C33.5081 46.5846 33.1747 46.3089 32.9759 45.9299C32.8113 45.6435 32.7272 45.32 32.6724 44.9965V34.9921C32.7308 34.4606 32.9424 33.9397 33.3136 33.55C35.602 31.2537 37.8898 28.9567 40.1853 26.6683C40.5751 26.2828 41.1037 26.0648 41.6438 26ZM38.1156 29.7469C37.1253 29.9535 36.3551 30.8989 36.3637 31.9113C36.3637 37.2777 36.3644 42.644 36.3629 48.0103C36.3601 48.6287 36.6301 49.24 37.0875 49.6554C37.5072 50.0494 38.0828 50.2624 38.6571 50.251C44.0241 50.2474 49.3919 50.2553 54.7589 50.2474C55.8924 50.2239 56.8863 49.2179 56.8991 48.0851C56.9034 42.6946 56.8991 37.304 56.9006 31.9128C56.8977 31.2687 56.5985 30.6332 56.1026 30.2214C55.6929 29.8716 55.1543 29.6842 54.6164 29.6913C49.2964 29.6913 43.9771 29.692 38.6571 29.6913C38.4754 29.692 38.293 29.7063 38.1156 29.7469Z" fill="white"/>
<path d="M77.1345 34.9081C78.563 34.4877 80.0678 34.4478 81.5469 34.4564C83.1471 34.4464 84.7793 34.5055 86.3154 34.9978C87.1974 35.285 88.0688 35.7595 88.601 36.5432C88.9808 37.0954 89.1282 37.7786 89.104 38.4412C87.7959 38.4419 86.4878 38.4419 85.1797 38.4412C85.1256 38.1669 85.0116 37.8955 84.7964 37.7088C84.4124 37.3661 83.9001 37.2215 83.4057 37.1281C82.5878 36.9785 81.7528 36.9871 80.9249 37.0006C80.2872 37.0205 79.641 37.0462 79.024 37.2215C78.7469 37.3062 78.4341 37.443 78.3315 37.7387C78.2446 38.0187 78.2738 38.3757 78.5153 38.573C78.7775 38.7939 79.123 38.873 79.4515 38.9392C80.3535 39.101 81.2747 39.0703 82.1874 39.0931C83.7769 39.1145 85.3949 39.133 86.9331 39.5826C87.7575 39.8298 88.591 40.2523 89.0627 41.0032C89.5386 41.7492 89.5408 42.6761 89.4638 43.5275C89.3819 44.354 88.9658 45.1427 88.3032 45.65C87.3905 46.356 86.2335 46.6382 85.1128 46.8063C83.9807 46.9716 82.8343 46.9851 81.6922 46.978C80.1511 46.9887 78.5787 46.9046 77.1103 46.3966C76.1848 46.0746 75.2928 45.5267 74.7627 44.681C74.3467 44.0291 74.2013 43.2411 74.2213 42.4759C75.5365 42.4752 76.851 42.4766 78.1662 42.4752C78.2004 42.9305 78.3985 43.3815 78.7625 43.6664C79.3254 44.1167 80.0585 44.2685 80.7596 44.3447C81.3766 44.4096 81.9986 44.3932 82.6184 44.3832C83.333 44.3533 84.0626 44.3169 84.7451 44.0825C85.0615 43.97 85.3942 43.7683 85.4911 43.4249C85.5766 43.0744 85.5452 42.6312 85.2261 42.4054C84.8591 42.1411 84.396 42.0734 83.96 42.0043C82.2871 41.7941 80.5929 41.9323 78.9171 41.7492C77.8 41.6195 76.6494 41.3894 75.6946 40.7624C75.0271 40.3314 74.534 39.6239 74.4272 38.8295C74.3196 37.9909 74.3915 37.0747 74.8874 36.3622C75.4054 35.5985 76.2732 35.1667 77.1345 34.9081Z" fill="white"/>
<path d="M94.2787 35.1033C95.8625 34.5632 97.5539 34.4457 99.2161 34.4556C100.788 34.4442 102.382 34.5511 103.891 35.0192C104.969 35.3569 106.01 35.9041 106.772 36.7526C107.572 37.6254 107.992 38.7967 108.061 39.9687C108.098 40.9512 108.101 41.9601 107.776 42.9019C107.432 43.9692 106.705 44.8969 105.772 45.5139C104.476 46.3816 102.914 46.7379 101.382 46.8953C102.012 47.6897 102.638 48.4884 103.268 49.2835C101.438 49.2857 99.608 49.2842 97.7784 49.2842C97.7777 48.5048 97.7791 47.7254 97.7784 46.9452C96.4674 46.8768 95.1458 46.6787 93.9239 46.1821C92.987 45.801 92.1114 45.221 91.4866 44.4174C90.943 43.7284 90.6003 42.8927 90.4585 42.0299C90.3488 41.3951 90.3623 40.7482 90.3765 40.1069C90.4171 38.9713 90.7663 37.8235 91.4937 36.9372C92.204 36.0551 93.2172 35.4652 94.2787 35.1033ZM97.8981 37.453C96.8814 37.5698 95.797 37.8277 95.0525 38.578C94.4875 39.143 94.298 39.9723 94.3322 40.7482C94.3186 41.5953 94.657 42.4638 95.3275 43.001C96.2316 43.7405 97.4364 43.9478 98.5713 44.0162C99.8844 44.0675 101.262 44.0084 102.466 43.4263C103.272 43.0444 103.913 42.2906 104.057 41.3972C104.176 40.5871 104.147 39.6944 103.69 38.9855C103.249 38.2937 102.482 37.8919 101.712 37.6767C100.473 37.3447 99.1684 37.3347 97.8981 37.453Z" fill="white"/>
<path d="M162.883 34.8838C164.279 34.4898 165.742 34.4478 167.183 34.4563C168.671 34.4457 170.18 34.4962 171.624 34.8895C172.55 35.1496 173.484 35.5664 174.107 36.3259C174.596 36.9101 174.804 37.6867 174.772 38.4405C173.465 38.4433 172.158 38.4412 170.851 38.4412C170.795 38.2303 170.734 38.013 170.59 37.8434C170.293 37.4829 169.836 37.3105 169.396 37.1972C168.487 36.9756 167.543 36.987 166.614 36.9999C165.984 37.0191 165.345 37.044 164.733 37.2093C164.465 37.2877 164.17 37.4024 164.031 37.6625C163.875 37.9973 163.95 38.4647 164.292 38.6563C164.818 38.9599 165.445 38.9941 166.037 39.0461C167.897 39.143 169.775 39.0169 171.617 39.3503C172.603 39.5355 173.635 39.8298 174.369 40.5522C174.877 41.0431 175.117 41.7449 175.166 42.4374V43.1919C175.127 43.7647 175.002 44.3454 174.698 44.8391C174.204 45.6535 173.33 46.1444 172.447 46.4315C170.82 46.9516 169.09 46.9865 167.396 46.978C165.891 46.9894 164.358 46.9139 162.916 46.4429C161.984 46.1358 161.072 45.6236 160.508 44.7971C160.036 44.1245 159.864 43.2867 159.892 42.4759C161.204 42.4759 162.517 42.4759 163.83 42.4752C163.865 42.7217 163.91 42.9732 164.036 43.1933C164.251 43.5895 164.638 43.8631 165.05 44.0284C165.726 44.3005 166.465 44.3725 167.188 44.3896C168.093 44.3953 169.007 44.3974 169.899 44.2229C170.266 44.1445 170.647 44.0383 170.935 43.7847C171.23 43.5161 171.256 43.058 171.129 42.7017C170.986 42.364 170.61 42.2244 170.283 42.1318C169.458 41.9244 168.601 41.908 167.756 41.8824C166.026 41.834 164.254 41.8853 162.589 41.3431C161.744 41.0645 160.898 40.5971 160.438 39.8056C160.054 39.1686 160.008 38.397 160.082 37.6746C160.147 37.0654 160.399 36.4705 160.826 36.0252C161.373 35.441 162.126 35.104 162.883 34.8838Z" fill="white"/>
<path d="M109.36 40.4675C109.364 38.536 109.352 36.6038 109.366 34.6723C110.631 34.678 111.894 34.6715 113.159 34.6751C113.16 36.603 113.156 38.531 113.161 40.4589C113.175 41.4072 113.522 42.4004 114.288 42.9989C115.118 43.6536 116.218 43.8161 117.246 43.8068C118.253 43.794 119.329 43.5902 120.102 42.8998C120.81 42.2771 121.11 41.3096 121.115 40.3891C121.118 38.4825 121.114 36.576 121.117 34.6694C122.38 34.6708 123.642 34.6694 124.904 34.6694C124.908 36.5995 124.904 38.5288 124.906 40.4589C124.915 41.8732 124.5 43.3095 123.637 44.4402C122.881 45.4369 121.781 46.1359 120.595 46.5064C119.192 46.9609 117.698 46.9744 116.238 46.9303C114.787 46.8626 113.304 46.5641 112.056 45.7882C111.141 45.2239 110.4 44.3846 109.957 43.405C109.536 42.4887 109.351 41.4728 109.36 40.4675Z" fill="white"/>
<path d="M124.368 46.7657C126.403 42.7324 128.44 38.7013 130.476 34.6701C132.105 34.6658 133.735 34.678 135.365 34.6637C137.542 38.6863 139.682 42.731 141.842 46.7643C140.485 46.7636 139.127 46.7657 137.769 46.7628C137.384 46.0304 137.013 45.2909 136.631 44.557C134.19 44.5535 131.749 44.557 129.308 44.5556C128.938 45.2887 128.583 46.029 128.216 46.7643C126.933 46.765 125.651 46.7628 124.368 46.7657ZM130.656 41.8254C132.183 41.8254 133.71 41.8269 135.236 41.8247C134.453 40.315 133.677 38.801 132.896 37.2899C132.148 38.801 131.397 40.3107 130.656 41.8254Z" fill="white"/>
<path d="M142.593 34.6701C144.617 34.6694 146.64 34.6701 148.664 34.6701C150.235 34.6773 151.816 34.616 153.375 34.8596C154.722 35.0663 156.085 35.4538 157.194 36.276C158.041 36.8966 158.672 37.8086 158.933 38.8281C159.156 39.6147 159.138 40.4404 159.118 41.2498C159.065 42.4339 158.639 43.6194 157.825 44.4951C157.054 45.3408 156.005 45.8815 154.924 46.2142C153.453 46.6603 151.904 46.7778 150.373 46.7643C147.78 46.7636 145.187 46.765 142.593 46.7636C142.592 42.7324 142.593 38.7013 142.593 34.6701ZM146.379 37.5335C146.377 39.641 146.377 41.7485 146.378 43.856C147.806 43.8538 149.233 43.861 150.66 43.8524C151.777 43.8154 152.946 43.6772 153.919 43.083C154.545 42.7046 154.999 42.0541 155.113 41.3289C155.22 40.6014 155.183 39.8106 154.804 39.1622C154.491 38.6215 153.956 38.2467 153.386 38.0137C152.253 37.5578 151.008 37.5214 149.803 37.5328C148.661 37.5335 147.52 37.5321 146.379 37.5335Z" fill="white"/>
</g>
<defs>
<clipPath id="clip0_6342_6284">
<rect width="142.494" height="28" fill="white" transform="translate(32.6724 26)"/>
</clipPath>
</defs>
</svg>
